<svg width="32" height="32" viewBox="0 0 32 32" fill="none" xmlns="http://www.w3.org/2000/svg">
<path id="Vector" d="M19.5928 0.322802C18.6139 0.313025 17.7154 0.962777 17.4503 1.95217C17.2468 2.71152 17.4669 3.48417 17.9657 4.02L13.8819 8.07267L8.28514 6.59493C8.43889 5.88838 8.24011 5.12012 7.69072 4.57079C6.83236 3.71222 5.44009 3.71222 4.58166 4.57079C3.72329 5.4291 3.72329 6.82131 4.58166 7.67989C5.14561 8.24365 5.94034 8.43651 6.66204 8.25968L8.12925 13.8253L4.01851 17.9694C3.48262 17.4706 2.71203 17.2505 1.95269 17.454C0.780224 17.7681 0.0840599 18.9727 0.398225 20.1453C0.712456 21.3179 1.91698 22.0141 3.08964 21.6998C3.87013 21.4907 4.43921 20.8862 4.63999 20.1599L10.2346 21.6833L11.7642 27.3009C11.047 27.5066 10.4522 28.0718 10.245 28.8452C9.93071 30.0176 10.6247 31.2222 11.7974 31.5364C12.9699 31.8506 14.1766 31.1567 14.4908 29.984C14.6967 29.2155 14.4684 28.4318 13.9567 27.8953L18.0945 23.7887L23.6955 25.2663C23.5095 25.9936 23.6997 26.7981 24.2691 27.3674C25.1274 28.2258 26.5197 28.2258 27.3781 27.3674C28.2365 26.509 28.2365 25.1167 27.3781 24.2583C26.8233 23.7035 26.0454 23.5079 25.3331 23.6702L23.8471 18.0359L27.8935 13.9585C28.4301 14.4715 29.2126 14.6987 29.9821 14.4925C31.1547 14.1783 31.8509 12.9737 31.5367 11.8011C31.2224 10.6286 30.0179 9.9324 28.8453 10.2466C28.0973 10.4471 27.5435 11.0114 27.322 11.6972L21.7419 10.178L20.2269 4.61868C20.9217 4.40154 21.4938 3.84436 21.6961 3.08907C22.0104 1.91659 21.3142 0.711921 20.1416 0.397753C19.9626 0.349701 19.7783 0.324539 19.593 0.322868L19.5928 0.322802ZM14.6904 8.96416C13.0587 9.71979 11.7609 11.1671 11.2592 13.0397C10.3614 16.3903 12.3499 19.8336 15.7003 20.7314C18.2711 21.4202 20.8996 20.4122 22.3882 18.3911C21.0886 21.5686 17.5988 23.3577 14.1957 22.4459C10.5042 21.4568 8.31227 17.6623 9.30139 13.9707C10.0112 11.3221 12.1664 9.44725 14.6903 8.96423L14.6904 8.96416Z" fill="white"/>
</svg>
