<svg width="34" height="34" viewBox="0 0 34 34" fill="none" xmlns="http://www.w3.org/2000/svg">
<path id="Vector" d="M0.806101 31.169L16.6678 15.321L14.3546 12.9769L13.165 14.1489C13.0121 14.302 12.8306 14.4234 12.6307 14.5062C12.4308 14.5891 12.2165 14.6317 12.0002 14.6317C11.7838 14.6317 11.5695 14.5891 11.3696 14.5062C11.1697 14.4234 10.9882 14.302 10.8353 14.1489L9.66221 12.9769C9.50904 12.8241 9.38752 12.6427 9.3046 12.443C9.22169 12.2433 9.17902 12.0292 9.17902 11.813C9.17902 11.5968 9.22169 11.3827 9.3046 11.183C9.38752 10.9833 9.50904 10.8019 9.66221 10.6492L19.014 1.30553C19.1668 1.15249 19.3484 1.03108 19.5483 0.948236C19.7482 0.865395 19.9624 0.822754 20.1788 0.822754C20.3952 0.822754 20.6095 0.865395 20.8094 0.948236C21.0093 1.03108 21.1908 1.15249 21.3437 1.30553L22.5168 2.47761C23.1612 3.12144 23.1612 4.16146 22.5168 4.80528L21.3437 5.94435L23.6899 8.30503C23.8427 8.15199 24.0243 8.03057 24.2242 7.94773C24.4241 7.86489 24.6383 7.82225 24.8547 7.82225C25.0711 7.82225 25.2854 7.86489 25.4853 7.94773C25.6852 8.03057 25.8667 8.15199 26.0196 8.30503C26.6639 8.94885 26.6639 10.0054 26.0196 10.6492L28.3493 12.9769L29.5224 11.8048C30.1667 11.161 31.2242 11.161 31.8686 11.8048L33.0251 12.9769C33.6695 13.6207 33.6695 14.6772 33.0251 15.321L23.6899 24.6482C23.0455 25.292 21.9881 25.292 21.3437 24.6482L20.1871 23.4926C20.0302 23.3403 19.9055 23.1581 19.8203 22.9568C19.7352 22.7554 19.6913 22.5391 19.6913 22.3205C19.6913 22.102 19.7352 21.8856 19.8203 21.6843C19.9055 21.483 20.0302 21.3008 20.1871 21.1484L21.3437 19.9764L19.014 17.6487L3.13579 33.5131C2.98293 33.6662 2.80136 33.7876 2.60149 33.8704C2.40161 33.9533 2.18734 33.9959 1.97094 33.9959C1.75455 33.9959 1.54028 33.9533 1.3404 33.8704C1.14052 33.7876 0.958957 33.6662 0.806101 33.5131C0.16172 32.8693 0.16172 31.8128 0.806101 31.169ZM30.0511 29.0559C30.9275 29.0559 31.768 29.4037 32.3877 30.0229C33.0074 30.6421 33.3556 31.4819 33.3556 32.3575V34.0084H16.833V32.3575C16.833 31.4819 17.1812 30.6421 17.8009 30.0229C18.4206 29.4037 19.2611 29.0559 20.1375 29.0559H30.0511Z" fill="white"/>
</svg>
