<svg width="29" height="34" viewBox="0 0 29 34" fill="none" xmlns="http://www.w3.org/2000/svg">
<rect x="1.88983" y="2.48734" width="25.4967" height="30.496" stroke="white" stroke-width="2"/>
<path d="M13.2093 27.632V25.2766C12.1702 25.2531 11.2405 25.1555 10.4202 24.9836C9.60773 24.8039 8.86554 24.5656 8.19366 24.2687V21.175C8.85773 21.4953 9.6507 21.7883 10.5726 22.0539C11.4944 22.3117 12.3734 22.468 13.2093 22.5226V18.8898C11.9749 18.4055 10.9866 17.9367 10.2444 17.4836C9.51007 17.0226 8.97882 16.5148 8.6507 15.9601C8.33038 15.3976 8.17023 14.7258 8.17023 13.9445C8.17023 13.1476 8.38116 12.4601 8.80304 11.882C9.23273 11.2961 9.82648 10.8273 10.5843 10.4758C11.3421 10.1242 12.2171 9.90546 13.2093 9.81952V8.02655H14.8148V9.77264C15.721 9.80389 16.5648 9.90936 17.346 10.0891C18.1351 10.2609 18.9085 10.5148 19.6663 10.8508L18.5648 13.593C17.9241 13.3273 17.2796 13.1203 16.6312 12.9719C15.9905 12.8234 15.3851 12.7258 14.8148 12.6789V16.1359C15.6819 16.4562 16.5062 16.8039 17.2874 17.1789C18.0687 17.5539 18.7054 18.0305 19.1976 18.6086C19.6898 19.1867 19.9359 19.9445 19.9359 20.882C19.9359 22.0461 19.5101 23.0226 18.6585 23.8117C17.8148 24.6008 16.5335 25.0734 14.8148 25.2297V27.632H13.2093ZM14.8148 22.4406C15.3616 22.3469 15.764 22.1867 16.0218 21.9601C16.2796 21.7258 16.4085 21.425 16.4085 21.0578C16.4085 20.8391 16.3499 20.6437 16.2327 20.4719C16.1155 20.3 15.9359 20.1398 15.6937 19.9914C15.4593 19.8351 15.1663 19.6789 14.8148 19.5226V22.4406ZM13.2093 15.4797V12.7258C12.889 12.7726 12.6155 12.8508 12.389 12.9601C12.1624 13.0617 11.9905 13.1945 11.8734 13.3586C11.7562 13.5226 11.6976 13.718 11.6976 13.9445C11.6976 14.1711 11.7484 14.3703 11.8499 14.5422C11.9593 14.7141 12.1234 14.8742 12.3421 15.0226C12.5687 15.1711 12.8577 15.3234 13.2093 15.4797Z" fill="white"/>
</svg>
