<svg width="27" height="25" viewBox="0 0 27 25" fill="none" xmlns="http://www.w3.org/2000/svg">
<path id="Vector" d="M23.0228 4.92891H19.0406V3.61202C19.0406 2.9135 18.7609 2.24359 18.263 1.74966C17.7651 1.25573 17.0898 0.978241 16.3857 0.978241H11.076C10.3719 0.978241 9.69664 1.25573 9.19876 1.74966C8.70088 2.24359 8.42117 2.9135 8.42117 3.61202V4.92891H4.4389C3.38273 4.92891 2.36982 5.34514 1.623 6.08603C0.876181 6.82693 0.456621 7.8318 0.456621 8.87958V20.7316C0.456621 21.7794 0.876181 22.7842 1.623 23.5251C2.36982 24.266 3.38273 24.6823 4.4389 24.6823H23.0228C24.079 24.6823 25.0919 24.266 25.8387 23.5251C26.5856 22.7842 27.0051 21.7794 27.0051 20.7316V8.87958C27.0051 7.8318 26.5856 6.82693 25.8387 6.08603C25.0919 5.34514 24.079 4.92891 23.0228 4.92891ZM11.076 3.61202H16.3857V4.92891H11.076V3.61202ZM24.3503 20.7316C24.3503 21.0808 24.2104 21.4158 23.9615 21.6628C23.7125 21.9097 23.3749 22.0485 23.0228 22.0485H4.4389C4.08684 22.0485 3.74921 21.9097 3.50026 21.6628C3.25132 21.4158 3.11147 21.0808 3.11147 20.7316V13.3438L9.32382 15.464C9.46477 15.483 9.60765 15.483 9.74859 15.464H17.7131C17.8571 15.4614 18 15.4392 18.1379 15.3982L24.3503 13.3438V20.7316ZM24.3503 10.5652L17.5008 12.8302H9.96098L3.11147 10.5652V8.87958C3.11147 8.53032 3.25132 8.19536 3.50026 7.9484C3.74921 7.70143 4.08684 7.56269 4.4389 7.56269H23.0228C23.3749 7.56269 23.7125 7.70143 23.9615 7.9484C24.2104 8.19536 24.3503 8.53032 24.3503 8.87958V10.5652Z" fill="white"/>
</svg>
