<svg width="43" height="33" viewBox="0 0 43 33" fill="none" xmlns="http://www.w3.org/2000/svg">
<path id="Vector" d="M1.00212 18.6233C1.1717 19.9082 1.80723 21.0882 2.79017 21.9431C3.77312 22.798 5.03636 23.2694 6.34425 23.2694C7.65214 23.2694 8.91538 22.798 9.89833 21.9431C10.8813 21.0882 11.5168 19.9082 11.6864 18.6233H1.00212ZM30.1112 29.3699C30.1115 29.4786 30.0902 29.5862 30.0485 29.6867C30.0069 29.7872 29.9456 29.8785 29.8683 29.9555C29.7909 30.0325 29.699 30.0937 29.5978 30.1355C29.4966 30.1773 29.3881 30.1989 29.2785 30.1991H13.7123C13.255 30.1991 12.8779 29.8271 12.8779 29.3699C12.879 29.1515 12.9674 28.9425 13.1238 28.7886C13.2802 28.6347 13.4918 28.5485 13.7123 28.549H29.2776C29.7382 28.549 30.1112 28.9161 30.1112 29.3699ZM12.9688 30.6216H30.0211V33.0084H12.9688V30.6216ZM31.5447 18.6233C31.7131 19.9091 32.348 21.0902 33.331 21.9461C34.314 22.802 35.5778 23.2742 36.8864 23.2745C38.1948 23.2745 39.4584 22.8024 40.4411 21.9463C41.4237 21.0903 42.0581 19.909 42.2256 18.6233H31.5447ZM41.9319 16.9624L37.5572 10.9918H39.896C40.465 10.9918 40.9231 10.5296 40.9231 9.95834C40.9231 9.39203 40.4642 8.93485 39.896 8.93485H27.5071C27.1393 7.93113 26.5112 7.0411 25.686 6.35434C24.8607 5.66758 23.8675 5.20831 22.8062 5.02277V1.80101C22.8062 1.22809 22.3423 0.770908 21.7674 0.770908L21.6706 0.781655L21.5738 0.770908C21.4373 0.770579 21.3021 0.797017 21.1759 0.848699C21.0498 0.900381 20.9352 0.976284 20.8388 1.07204C20.7424 1.16779 20.6661 1.2815 20.6142 1.40661C20.5624 1.53172 20.536 1.66576 20.5367 1.80101V5.02112C19.4755 5.20653 18.4824 5.66577 17.6574 6.35257C16.8324 7.03937 16.2047 7.92947 15.8374 8.9332H3.44603C2.88115 8.9332 2.42057 9.39038 2.42057 9.95669C2.42057 10.5288 2.88115 10.9901 3.44603 10.9901H5.678L1.3025 16.9607H0.755981V18.0636H11.935V16.9607H11.386L7.01217 10.9918H17.1658C17.1658 10.7586 17.1916 10.5296 17.2267 10.3105C17.2625 10.2072 17.2867 10.1022 17.2867 9.99389C17.4748 9.20846 17.8776 8.48952 18.4509 7.91595C19.0242 7.34239 19.7458 6.93634 20.5367 6.74237V18.0661H20.4933C20.404 22.3254 18.3589 26.0399 15.3251 28.1274H28.0194C24.9847 26.0399 22.9413 22.3254 22.8471 18.0661H22.807V6.74237C23.5977 6.93639 24.3193 7.34246 24.8924 7.91604C25.4655 8.48961 25.8682 9.20852 26.0561 9.99389C26.0594 10.1022 26.082 10.2072 26.1187 10.3105C26.152 10.5304 26.1729 10.7586 26.1729 10.9918H36.2205L31.845 16.9624H31.2993V18.0652H42.475V16.9624H41.9319ZM5.89994 16.9624H2.40806L5.89994 12.1963V16.9624ZM6.79356 16.9624V12.1963L10.2854 16.9624H6.79356ZM36.4408 16.9624H32.9472L36.4408 12.1963V16.9624ZM37.3302 16.9624V12.1963L40.8263 16.9624H37.3302ZM7.3818 7.498C7.37415 7.76539 7.26156 8.01928 7.06798 8.20573C6.87439 8.39217 6.61506 8.49648 6.34508 8.49648C6.07511 8.49648 5.81578 8.39217 5.62219 8.20573C5.42861 8.01928 5.31602 7.76539 5.30837 7.498C5.30837 6.93086 5.77395 6.46789 6.34717 6.46789C6.91789 6.46707 7.3818 6.93086 7.3818 7.498ZM37.9235 7.44343C37.9235 8.0147 37.4596 8.46775 36.8872 8.46775C36.7511 8.46863 36.6161 8.44275 36.4902 8.39161C36.3642 8.34048 36.2497 8.2651 36.1533 8.16984C36.057 8.07458 35.9806 7.96133 35.9287 7.83665C35.8768 7.71196 35.8503 7.57831 35.8509 7.44343C35.8453 7.30513 35.8679 7.16712 35.9175 7.0377C35.9671 6.90829 36.0425 6.79012 36.1393 6.6903C36.236 6.59048 36.3522 6.51106 36.4807 6.45681C36.6092 6.40256 36.7475 6.3746 36.8872 6.3746C37.0269 6.3746 37.1652 6.40256 37.2937 6.45681C37.4222 6.51106 37.5383 6.59048 37.6351 6.6903C37.7319 6.79012 37.8073 6.90829 37.8569 7.0377C37.9064 7.16712 37.9291 7.30513 37.9235 7.44343Z" fill="white"/>
</svg>
