<svg width="27" height="26" viewBox="0 0 27 26" fill="none" xmlns="http://www.w3.org/2000/svg">
<path id="Vector" d="M17.0968 11.0136C17.0968 10.3 17.6728 9.71615 18.3769 9.71615C19.0809 9.71615 19.6569 10.3 19.6569 11.0136C19.6569 11.7273 19.0809 12.3111 18.3769 12.3111C17.6728 12.3111 17.0968 11.7273 17.0968 11.0136ZM26.057 7.76993V16.8134L22.4473 18.033L20.2969 25.2859H13.2568V22.691H10.6968V25.2859H3.65666C3.65666 25.2859 0.456621 14.3092 0.456621 10.3649C0.456621 6.42055 3.60546 3.22874 7.49671 3.22874H13.8968C15.0616 1.65879 16.9176 0.633774 19.0169 0.633774C19.3332 0.633842 19.6446 0.713233 19.9233 0.864872C20.202 1.01651 20.4394 1.23569 20.6142 1.50287C20.7891 1.77005 20.8961 2.07693 20.9256 2.39617C20.9551 2.71541 20.9062 3.03709 20.7833 3.33254C20.6041 3.77368 20.4505 4.2797 20.3737 4.82464L23.2793 7.76993H26.057ZM23.4969 10.3649H22.2169L17.7368 5.82371C17.7368 4.98034 17.852 4.14995 18.0697 3.34551C16.828 3.66988 15.8168 4.60407 15.3944 5.82371H7.49671C5.02628 5.82371 3.01665 7.86075 3.01665 10.3649C3.01665 12.8042 4.57827 18.9932 5.57669 22.691H8.13672V20.096H15.8168V22.691H18.3769L20.3737 16.0089L23.4969 14.945V10.3649Z" fill="white"/>
</svg>
