<svg width="30" height="28" viewBox="0 0 30 28" fill="none" xmlns="http://www.w3.org/2000/svg">
<path id="Vector" d="M25.1373 16.5051H27.8463V7.80957C27.8463 7.36193 27.7447 6.94785 27.5415 6.56736C27.3383 6.18686 27.0561 5.8735 26.6949 5.6273L19.9224 0.826295C19.4483 0.49056 18.9291 0.322693 18.3647 0.322693C17.8003 0.322693 17.2811 0.49056 16.807 0.826295L10.0344 5.6273C9.67321 5.8735 9.39102 6.18686 9.18784 6.56736C8.98466 6.94785 8.88307 7.36193 8.88307 7.80957V9.79041H11.5921V7.776L18.3647 3.07572L25.1373 7.776V16.5051ZM19.7192 8.44747C19.5386 8.44747 19.3806 8.38032 19.2451 8.24603C19.1097 8.11173 19.0419 7.95506 19.0419 7.776C19.0419 7.59694 19.1097 7.44027 19.2451 7.30597C19.3806 7.17168 19.5386 7.10453 19.7192 7.10453C19.8998 7.10453 20.0578 7.17168 20.1933 7.30597C20.3287 7.44027 20.3965 7.59694 20.3965 7.776C20.3965 7.95506 20.3287 8.11173 20.1933 8.24603C20.0578 8.38032 19.8998 8.44747 19.7192 8.44747ZM17.0102 8.44747C16.8296 8.44747 16.6715 8.38032 16.5361 8.24603C16.4006 8.11173 16.3329 7.95506 16.3329 7.776C16.3329 7.59694 16.4006 7.44027 16.5361 7.30597C16.6715 7.17168 16.8296 7.10453 17.0102 7.10453C17.1908 7.10453 17.3488 7.17168 17.4842 7.30597C17.6197 7.44027 17.6874 7.59694 17.6874 7.776C17.6874 7.95506 17.6197 8.11173 17.4842 8.24603C17.3488 8.38032 17.1908 8.44747 17.0102 8.44747ZM19.7192 11.1333C19.5386 11.1333 19.3806 11.0662 19.2451 10.9319C19.1097 10.7976 19.0419 10.6409 19.0419 10.4619C19.0419 10.2828 19.1097 10.1261 19.2451 9.99185C19.3806 9.85755 19.5386 9.79041 19.7192 9.79041C19.8998 9.79041 20.0578 9.85755 20.1933 9.99185C20.3287 10.1261 20.3965 10.2828 20.3965 10.4619C20.3965 10.6409 20.3287 10.7976 20.1933 10.9319C20.0578 11.0662 19.8998 11.1333 19.7192 11.1333ZM17.0102 11.1333C16.8296 11.1333 16.6715 11.0662 16.5361 10.9319C16.4006 10.7976 16.3329 10.6409 16.3329 10.4619C16.3329 10.2828 16.4006 10.1261 16.5361 9.99185C16.6715 9.85755 16.8296 9.79041 17.0102 9.79041C17.1908 9.79041 17.3488 9.85755 17.4842 9.99185C17.6197 10.1261 17.6874 10.2828 17.6874 10.4619C17.6874 10.6409 17.6197 10.7976 17.4842 10.9319C17.3488 11.0662 17.1908 11.1333 17.0102 11.1333ZM18.297 25.0999L26.3563 22.6155C26.2434 22.414 26.0795 22.2403 25.8646 22.0944C25.6497 21.9485 25.4073 21.876 25.1373 21.8769H18.297C17.6874 21.8769 17.2021 21.8545 16.8408 21.8097C16.4796 21.7649 16.1072 21.6754 15.7234 21.5411L13.7932 20.9032C13.432 20.7913 13.1724 20.5675 13.0143 20.2318C12.8563 19.896 12.8337 19.5491 12.9466 19.191C13.0595 18.8329 13.2798 18.5696 13.6076 18.4013C13.9354 18.233 14.2795 18.2053 14.6398 18.3181L16.062 18.7881C16.4458 18.9 16.8806 18.9895 17.3664 19.0567C17.8522 19.1238 18.5123 19.1686 19.3467 19.191H19.7192C19.7192 18.9448 19.646 18.7098 19.4998 18.4859C19.3535 18.2621 19.1783 18.1166 18.9742 18.0495L11.0503 15.1622H8.88307V22.5483L18.297 25.0999ZM17.5858 27.7186L8.88307 25.3013C8.70247 25.8833 8.34669 26.3533 7.81572 26.7114C7.28475 27.0695 6.73752 27.2486 6.17404 27.2486H3.46501C2.72003 27.2486 2.08205 26.9854 1.55108 26.459C1.02011 25.9325 0.755081 25.3004 0.755984 24.5627V15.1622C0.755984 14.4235 1.02147 13.791 1.55244 13.2646C2.08341 12.7382 2.72093 12.4754 3.46501 12.4763H11.0503C11.2083 12.4763 11.3664 12.4933 11.5244 12.5273C11.6824 12.5613 11.8291 12.6003 11.9646 12.6442L19.9224 15.565C20.6674 15.8336 21.2715 16.3037 21.7347 16.9751C22.198 17.6466 22.4291 18.3852 22.4282 19.191H25.1373C26.266 19.191 27.2255 19.5603 28.0156 20.2989C28.8057 21.0375 29.2008 22.0111 29.2008 23.2198C29.2008 23.7122 29.0708 24.0985 28.8107 24.3787C28.5506 24.659 28.1501 24.8882 27.6092 25.0663L19.1435 27.6851C18.8952 27.7746 18.6356 27.8193 18.3647 27.8193C18.0938 27.8193 17.8342 27.7858 17.5858 27.7186ZM3.46501 24.5627H6.17404V15.1622H3.46501V24.5627Z" fill="white"/>
</svg>
