<svg width="131" height="33" viewBox="0 0 131 33" fill="none" xmlns="http://www.w3.org/2000/svg">
<g id="Group 2">
<path id="Vector" d="M131 13.53C128.15 13.5371 125.369 12.652 123.051 11V22.5221C123.05 24.6567 122.395 26.7402 121.173 28.4939C119.951 30.2476 118.221 31.588 116.213 32.3358C114.205 33.0836 112.016 33.2031 109.938 32.6784C107.86 32.1537 105.993 31.0097 104.586 29.3995C103.178 27.7893 102.298 25.7897 102.063 23.668C101.828 21.5463 102.25 19.4038 103.271 17.5269C104.291 15.65 105.864 14.1283 107.777 13.1652C109.69 12.2021 111.852 11.8437 113.975 12.1377V17.9326C113.004 17.6284 111.961 17.6376 110.996 17.9588C110.03 18.28 109.191 18.8969 108.598 19.7213C108.006 20.5457 107.69 21.5355 107.696 22.5493C107.702 23.5631 108.029 24.5491 108.632 25.3665C109.234 26.1839 110.08 26.7909 111.05 27.1007C112.019 27.4106 113.062 27.4075 114.03 27.092C114.997 26.7764 115.84 26.1644 116.437 25.3435C117.035 24.5226 117.356 23.5347 117.356 22.5208V0H123.053C123.049 0.479024 123.089 0.957394 123.173 1.42907C123.371 2.48209 123.783 3.48384 124.383 4.37305C124.983 5.26226 125.759 6.02025 126.663 6.60065C127.949 7.44781 129.458 7.8993 131 7.89886V13.53Z" fill="white"/>
<path id="Vector_2" d="M76.8929 2H54.1071C53.2831 2 52.4928 2.33865 51.9101 2.94144C51.3274 3.54424 51 4.3618 51 5.21429V28.7857C51 29.6382 51.3274 30.4558 51.9101 31.0586C52.4928 31.6614 53.2831 32 54.1071 32H62.9949V21.8013H58.9167V17H62.9949V13.3411C62.9949 9.17924 65.39 6.88036 69.0583 6.88036C70.8152 6.88036 72.6523 7.20446 72.6523 7.20446V11.2893H70.6281C68.6337 11.2893 68.0116 12.5696 68.0116 13.8828V17H72.4639L71.7518 21.8007H68.0116V32H76.8929C77.7169 32 78.5072 31.6614 79.0899 31.0586C79.6726 30.4558 80 29.6382 80 28.7857V5.21429C80 4.3618 79.6726 3.54424 79.0899 2.94144C78.5072 2.33865 77.7169 2 76.8929 2Z" fill="white"/>
<path id="Vector_3" d="M12.092 13.3906L18.2545 17.0134L12.092 20.6362V13.3906ZM29 5.21429V28.7857C29 30.5603 27.6083 32 25.8929 32H3.10714C1.39174 32 0 30.5603 0 28.7857V5.21429C0 3.43973 1.39174 2 3.10714 2H25.8929C27.6083 2 29 3.43973 29 5.21429ZM26.2812 17.0201C26.2812 17.0201 26.2812 13.029 25.7893 11.1138C25.5174 10.0558 24.7212 9.22545 23.7049 8.9442C21.873 8.42857 14.5 8.42857 14.5 8.42857C14.5 8.42857 7.12701 8.42857 5.29509 8.9442C4.27879 9.22545 3.48259 10.0558 3.21071 11.1138C2.71875 13.0223 2.71875 17.0201 2.71875 17.0201C2.71875 17.0201 2.71875 21.0112 3.21071 22.9263C3.48259 23.9844 4.27879 24.7812 5.29509 25.0625C7.12701 25.5714 14.5 25.5714 14.5 25.5714C14.5 25.5714 21.873 25.5714 23.7049 25.0558C24.7212 24.7746 25.5174 23.9777 25.7893 22.9196C26.2812 21.0112 26.2812 17.0201 26.2812 17.0201Z" fill="white"/>
</g>
</svg>
